<?xml version="1.0"?>
<svg xmlns="http://www.w3.org/2000/svg" width="75" height="124" viewBox="0 0 75 124">
<line x1="30.00" y1="68.00" x2="30.00" y2="66.00" stroke="black" stroke-width="1.5"/>
<line x1="30.00" y1="68.00" x2="23.00" y2="67.00" stroke="black" stroke-width="1.5"/>
<line x1="30.00" y1="68.00" x2="39.00" y2="63.00" stroke="black" stroke-width="1.5"/>
<line x1="30.00" y1="68.00" x2="30.00" y2="70.00" stroke="black" stroke-width="1.5"/>
<line x1="30.00" y1="66.00" x2="22.00" y2="55.00" stroke="black" stroke-width="1.5"/>
<line x1="30.00" y1="66.00" x2="34.00" y2="54.00" stroke="black" stroke-width="1.5"/>
<line x1="23.00" y1="67.00" x2="20.00" y2="62.00" stroke="black" stroke-width="1.5"/>
<line x1="20.00" y1="62.00" x2="22.00" y2="55.00" stroke="black" stroke-width="1.5"/>
<line x1="39.00" y1="63.00" x2="44.00" y2="66.00" stroke="black" stroke-width="1.5"/>
<line x1="44.00" y1="66.00" x2="41.00" y2="71.00" stroke="black" stroke-width="1.5"/>
<line x1="41.00" y1="71.00" x2="30.00" y2="70.00" stroke="black" stroke-width="1.5"/>
<line x1="30.00" y1="70.00" x2="20.00" y2="79.00" stroke="black" stroke-width="1.5"/>
<line x1="33.00" y1="30.00" x2="29.00" y2="25.00" stroke="black" stroke-width="1.5"/>
<line x1="33.00" y1="30.00" x2="42.00" y2="28.00" stroke="black" stroke-width="1.5"/>
<line x1="33.00" y1="30.00" x2="33.00" y2="32.00" stroke="black" stroke-width="1.5"/>
<line x1="29.00" y1="25.00" x2="24.00" y2="26.00" stroke="black" stroke-width="1.5"/>
<line x1="24.00" y1="26.00" x2="20.00" y2="36.00" stroke="black" stroke-width="1.5"/>
<line x1="20.00" y1="36.00" x2="23.00" y2="37.00" stroke="black" stroke-width="1.5"/>
<line x1="20.00" y1="36.00" x2="15.00" y2="40.00" stroke="black" stroke-width="1.5"/>
<line x1="42.00" y1="28.00" x2="44.00" y2="39.00" stroke="black" stroke-width="1.5"/>
<line x1="44.00" y1="39.00" x2="39.00" y2="39.00" stroke="black" stroke-width="1.5"/>
<line x1="44.00" y1="39.00" x2="47.00" y2="48.00" stroke="black" stroke-width="1.5"/>
<line x1="15.00" y1="40.00" x2="16.00" y2="46.00" stroke="black" stroke-width="1.5"/>
<line x1="16.00" y1="46.00" x2="23.00" y2="47.00" stroke="black" stroke-width="1.5"/>
<line x1="23.00" y1="47.00" x2="28.00" y2="55.00" stroke="black" stroke-width="1.5"/>
<line x1="28.00" y1="55.00" x2="34.00" y2="54.00" stroke="black" stroke-width="1.5"/>
<line x1="34.00" y1="54.00" x2="36.00" y2="49.00" stroke="black" stroke-width="1.5"/>
<line x1="47.00" y1="48.00" x2="36.00" y2="49.00" stroke="black" stroke-width="1.5"/>
<line x1="36.00" y1="49.00" x2="36.00" y2="48.00" stroke="black" stroke-width="1.5"/>
<line x1="35.00" y1="38.00" x2="28.00" y2="36.00" stroke="black" stroke-width="1.5"/>
<line x1="35.00" y1="38.00" x2="35.00" y2="39.00" stroke="black" stroke-width="1.5"/>
<line x1="28.00" y1="36.00" x2="26.00" y2="39.00" stroke="black" stroke-width="1.5"/>
<line x1="26.00" y1="39.00" x2="28.00" y2="44.00" stroke="black" stroke-width="1.5"/>
<line x1="28.00" y1="44.00" x2="35.00" y2="39.00" stroke="black" stroke-width="1.5"/>
</svg>
