<?xml version="1.0"?>
<svg xmlns="http://www.w3.org/2000/svg" width="173" height="103" viewBox="0 0 173 103">
<line x1="72.00" y1="17.00" x2="86.00" y2="12.00" stroke="black" stroke-width="1.5"/>
<line x1="72.00" y1="17.00" x2="60.00" y2="19.00" stroke="black" stroke-width="1.5"/>
<line x1="72.00" y1="17.00" x2="64.00" y2="30.00" stroke="black" stroke-width="1.5"/>
<line x1="86.00" y1="12.00" x2="111.00" y2="13.00" stroke="black" stroke-width="1.5"/>
<line x1="111.00" y1="13.00" x2="126.00" y2="19.00" stroke="black" stroke-width="1.5"/>
<line x1="126.00" y1="19.00" x2="136.00" y2="30.00" stroke="black" stroke-width="1.5"/>
<line x1="136.00" y1="30.00" x2="149.00" y2="28.00" stroke="black" stroke-width="1.5"/>
<line x1="136.00" y1="30.00" x2="137.00" y2="47.00" stroke="black" stroke-width="1.5"/>
<line x1="60.00" y1="19.00" x2="52.00" y2="23.00" stroke="black" stroke-width="1.5"/>
<line x1="60.00" y1="19.00" x2="55.00" y2="24.00" stroke="black" stroke-width="1.5"/>
<line x1="64.00" y1="30.00" x2="55.00" y2="24.00" stroke="black" stroke-width="1.5"/>
<line x1="64.00" y1="30.00" x2="65.00" y2="50.00" stroke="black" stroke-width="1.5"/>
<line x1="52.00" y1="23.00" x2="33.00" y2="21.00" stroke="black" stroke-width="1.5"/>
<line x1="52.00" y1="23.00" x2="55.00" y2="24.00" stroke="black" stroke-width="1.5"/>
<line x1="33.00" y1="21.00" x2="24.00" y2="14.00" stroke="black" stroke-width="1.5"/>
<line x1="33.00" y1="21.00" x2="22.00" y2="24.00" stroke="black" stroke-width="1.5"/>
<line x1="24.00" y1="14.00" x2="22.00" y2="24.00" stroke="black" stroke-width="1.5"/>
<line x1="22.00" y1="24.00" x2="17.00" y2="34.00" stroke="black" stroke-width="1.5"/>
<line x1="17.00" y1="34.00" x2="19.00" y2="51.00" stroke="black" stroke-width="1.5"/>
<line x1="19.00" y1="51.00" x2="24.00" y2="61.00" stroke="black" stroke-width="1.5"/>
<line x1="24.00" y1="61.00" x2="34.00" y2="67.00" stroke="black" stroke-width="1.5"/>
<line x1="34.00" y1="67.00" x2="34.00" y2="65.00" stroke="black" stroke-width="1.5"/>
<line x1="34.00" y1="67.00" x2="53.00" y2="66.00" stroke="black" stroke-width="1.5"/>
<line x1="149.00" y1="28.00" x2="151.00" y2="16.00" stroke="black" stroke-width="1.5"/>
<line x1="149.00" y1="28.00" x2="150.00" y2="28.00" stroke="black" stroke-width="1.5"/>
<line x1="151.00" y1="16.00" x2="156.00" y2="12.00" stroke="black" stroke-width="1.5"/>
<line x1="156.00" y1="12.00" x2="160.00" y2="14.00" stroke="black" stroke-width="1.5"/>
<line x1="160.00" y1="14.00" x2="159.00" y2="23.00" stroke="black" stroke-width="1.5"/>
<line x1="159.00" y1="23.00" x2="150.00" y2="28.00" stroke="black" stroke-width="1.5"/>
<line x1="150.00" y1="28.00" x2="155.00" y2="36.00" stroke="black" stroke-width="1.5"/>
<line x1="155.00" y1="36.00" x2="168.00" y2="37.00" stroke="black" stroke-width="1.5"/>
<line x1="65.00" y1="50.00" x2="53.00" y2="66.00" stroke="black" stroke-width="1.5"/>
<line x1="53.00" y1="66.00" x2="55.00" y2="69.00" stroke="black" stroke-width="1.5"/>
<line x1="137.00" y1="47.00" x2="127.00" y2="62.00" stroke="black" stroke-width="1.5"/>
<line x1="127.00" y1="62.00" x2="118.00" y2="68.00" stroke="black" stroke-width="1.5"/>
<line x1="127.00" y1="62.00" x2="135.00" y2="80.00" stroke="black" stroke-width="1.5"/>
<line x1="31.00" y1="47.00" x2="44.00" y2="46.00" stroke="black" stroke-width="1.5"/>
<line x1="31.00" y1="47.00" x2="26.00" y2="51.00" stroke="black" stroke-width="1.5"/>
<line x1="31.00" y1="47.00" x2="33.00" y2="53.00" stroke="black" stroke-width="1.5"/>
<line x1="44.00" y1="46.00" x2="47.00" y2="55.00" stroke="black" stroke-width="1.5"/>
<line x1="47.00" y1="55.00" x2="43.00" y2="59.00" stroke="black" stroke-width="1.5"/>
<line x1="43.00" y1="59.00" x2="32.00" y2="58.00" stroke="black" stroke-width="1.5"/>
<line x1="32.00" y1="58.00" x2="26.00" y2="51.00" stroke="black" stroke-width="1.5"/>
<line x1="118.00" y1="68.00" x2="126.00" y2="81.00" stroke="black" stroke-width="1.5"/>
<line x1="118.00" y1="68.00" x2="116.00" y2="68.00" stroke="black" stroke-width="1.5"/>
<line x1="135.00" y1="80.00" x2="126.00" y2="81.00" stroke="black" stroke-width="1.5"/>
<line x1="34.00" y1="65.00" x2="34.00" y2="64.00" stroke="black" stroke-width="1.5"/>
<line x1="34.00" y1="65.00" x2="48.00" y2="62.00" stroke="black" stroke-width="1.5"/>
<line x1="48.00" y1="62.00" x2="49.00" y2="58.00" stroke="black" stroke-width="1.5"/>
<line x1="55.00" y1="69.00" x2="65.00" y2="71.00" stroke="black" stroke-width="1.5"/>
<line x1="55.00" y1="69.00" x2="49.00" y2="85.00" stroke="black" stroke-width="1.5"/>
<line x1="116.00" y1="68.00" x2="108.00" y2="70.00" stroke="black" stroke-width="1.5"/>
<line x1="116.00" y1="68.00" x2="113.00" y2="86.00" stroke="black" stroke-width="1.5"/>
<line x1="65.00" y1="71.00" x2="61.00" y2="88.00" stroke="black" stroke-width="1.5"/>
<line x1="65.00" y1="71.00" x2="69.00" y2="72.00" stroke="black" stroke-width="1.5"/>
<line x1="49.00" y1="85.00" x2="53.00" y2="88.00" stroke="black" stroke-width="1.5"/>
<line x1="53.00" y1="88.00" x2="61.00" y2="88.00" stroke="black" stroke-width="1.5"/>
<line x1="108.00" y1="70.00" x2="103.00" y2="85.00" stroke="black" stroke-width="1.5"/>
<line x1="108.00" y1="70.00" x2="80.00" y2="73.00" stroke="black" stroke-width="1.5"/>
<line x1="113.00" y1="86.00" x2="103.00" y2="85.00" stroke="black" stroke-width="1.5"/>
<line x1="80.00" y1="73.00" x2="69.00" y2="72.00" stroke="black" stroke-width="1.5"/>
<line x1="80.00" y1="73.00" x2="82.00" y2="87.00" stroke="black" stroke-width="1.5"/>
<line x1="69.00" y1="72.00" x2="73.00" y2="88.00" stroke="black" stroke-width="1.5"/>
<line x1="73.00" y1="88.00" x2="82.00" y2="87.00" stroke="black" stroke-width="1.5"/>
<line x1="40.00" y1="51.00" x2="41.00" y2="54.00" stroke="black" stroke-width="1.5"/>
<line x1="33.00" y1="35.00" x2="29.00" y2="30.00" stroke="black" stroke-width="1.5"/>
<line x1="33.00" y1="35.00" x2="32.00" y2="36.00" stroke="black" stroke-width="1.5"/>
<line x1="29.00" y1="30.00" x2="25.00" y2="34.00" stroke="black" stroke-width="1.5"/>
<line x1="25.00" y1="34.00" x2="32.00" y2="36.00" stroke="black" stroke-width="1.5"/>
<line x1="51.00" y1="35.00" x2="49.00" y2="31.00" stroke="black" stroke-width="1.5"/>
<line x1="51.00" y1="35.00" x2="51.00" y2="36.00" stroke="black" stroke-width="1.5"/>
<line x1="49.00" y1="31.00" x2="43.00" y2="34.00" stroke="black" stroke-width="1.5"/>
<line x1="43.00" y1="34.00" x2="48.00" y2="38.00" stroke="black" stroke-width="1.5"/>
<line x1="48.00" y1="38.00" x2="51.00" y2="36.00" stroke="black" stroke-width="1.5"/>
</svg>
