<?xml version="1.0"?>
<svg xmlns="http://www.w3.org/2000/svg" width="61" height="37" viewBox="0 0 61 37">
<line x1="20.00" y1="9.00" x2="30.00" y2="6.00" stroke="black" stroke-width="1.5"/>
<line x1="20.00" y1="9.00" x2="16.00" y2="9.00" stroke="black" stroke-width="1.5"/>
<line x1="20.00" y1="9.00" x2="21.00" y2="10.00" stroke="black" stroke-width="1.5"/>
<line x1="47.00" y1="11.00" x2="41.00" y2="6.00" stroke="black" stroke-width="1.5"/>
<line x1="47.00" y1="11.00" x2="52.00" y2="11.00" stroke="black" stroke-width="1.5"/>
<line x1="47.00" y1="11.00" x2="48.00" y2="14.00" stroke="black" stroke-width="1.5"/>
<line x1="41.00" y1="6.00" x2="32.00" y2="6.00" stroke="black" stroke-width="1.5"/>
<line x1="52.00" y1="11.00" x2="56.00" y2="6.00" stroke="black" stroke-width="1.5"/>
<line x1="52.00" y1="11.00" x2="58.00" y2="13.00" stroke="black" stroke-width="1.5"/>
<line x1="56.00" y1="6.00" x2="52.00" y2="8.00" stroke="black" stroke-width="1.5"/>
<line x1="23.00" y1="25.00" x2="19.00" y2="25.00" stroke="black" stroke-width="1.5"/>
<line x1="23.00" y1="25.00" x2="25.00" y2="28.00" stroke="black" stroke-width="1.5"/>
<line x1="23.00" y1="25.00" x2="20.00" y2="30.00" stroke="black" stroke-width="1.5"/>
<line x1="10.00" y1="6.00" x2="11.00" y2="6.00" stroke="black" stroke-width="1.5"/>
<line x1="9.00" y1="8.00" x2="8.00" y2="12.00" stroke="black" stroke-width="1.5"/>
<line x1="12.00" y1="8.00" x2="13.00" y2="8.00" stroke="black" stroke-width="1.5"/>
<line x1="23.00" y1="11.00" x2="22.00" y2="21.00" stroke="black" stroke-width="1.5"/>
<line x1="11.00" y1="13.00" x2="13.00" y2="13.00" stroke="black" stroke-width="1.5"/>
<line x1="17.00" y1="13.00" x2="18.00" y2="14.00" stroke="black" stroke-width="1.5"/>
<line x1="48.00" y1="16.00" x2="46.00" y2="19.00" stroke="black" stroke-width="1.5"/>
<line x1="17.00" y1="18.00" x2="17.00" y2="22.00" stroke="black" stroke-width="1.5"/>
<line x1="12.00" y1="23.00" x2="16.00" y2="24.00" stroke="black" stroke-width="1.5"/>
<line x1="35.00" y1="25.00" x2="30.00" y2="25.00" stroke="black" stroke-width="1.5"/>
<line x1="30.00" y1="25.00" x2="28.00" y2="30.00" stroke="black" stroke-width="1.5"/>
<line x1="37.00" y1="25.00" x2="37.00" y2="30.00" stroke="black" stroke-width="1.5"/>
<line x1="37.00" y1="30.00" x2="41.00" y2="23.00" stroke="black" stroke-width="1.5"/>
<line x1="41.00" y1="23.00" x2="47.00" y2="27.00" stroke="black" stroke-width="1.5"/>
<line x1="47.00" y1="27.00" x2="43.00" y2="27.00" stroke="black" stroke-width="1.5"/>
<line x1="19.00" y1="27.00" x2="18.00" y2="30.00" stroke="black" stroke-width="1.5"/>
<line x1="26.00" y1="30.00" x2="26.00" y2="31.00" stroke="black" stroke-width="1.5"/>
</svg>
