<?xml version="1.0"?>
<svg xmlns="http://www.w3.org/2000/svg" width="63" height="38" viewBox="0 0 63 38">
<line x1="22.00" y1="9.00" x2="34.00" y2="6.00" stroke="black" stroke-width="1.5"/>
<line x1="22.00" y1="9.00" x2="10.00" y2="6.00" stroke="black" stroke-width="1.5"/>
<line x1="22.00" y1="9.00" x2="25.00" y2="14.00" stroke="black" stroke-width="1.5"/>
<line x1="25.00" y1="14.00" x2="23.00" y2="21.00" stroke="black" stroke-width="1.5"/>
<line x1="46.00" y1="23.00" x2="51.00" y2="11.00" stroke="black" stroke-width="1.5"/>
<line x1="46.00" y1="23.00" x2="42.00" y2="25.00" stroke="black" stroke-width="1.5"/>
<line x1="46.00" y1="23.00" x2="47.00" y2="25.00" stroke="black" stroke-width="1.5"/>
<line x1="51.00" y1="11.00" x2="59.00" y2="14.00" stroke="black" stroke-width="1.5"/>
<line x1="42.00" y1="25.00" x2="38.00" y2="27.00" stroke="black" stroke-width="1.5"/>
<line x1="42.00" y1="25.00" x2="39.00" y2="31.00" stroke="black" stroke-width="1.5"/>
<line x1="38.00" y1="27.00" x2="39.00" y2="31.00" stroke="black" stroke-width="1.5"/>
<line x1="24.00" y1="26.00" x2="24.00" y2="25.00" stroke="black" stroke-width="1.5"/>
<line x1="24.00" y1="26.00" x2="26.00" y2="26.00" stroke="black" stroke-width="1.5"/>
<line x1="24.00" y1="26.00" x2="22.00" y2="32.00" stroke="black" stroke-width="1.5"/>
<line x1="26.00" y1="26.00" x2="30.00" y2="26.00" stroke="black" stroke-width="1.5"/>
<line x1="26.00" y1="26.00" x2="29.00" y2="32.00" stroke="black" stroke-width="1.5"/>
<line x1="22.00" y1="32.00" x2="20.00" y2="24.00" stroke="black" stroke-width="1.5"/>
<line x1="30.00" y1="26.00" x2="29.00" y2="32.00" stroke="black" stroke-width="1.5"/>
<line x1="30.00" y1="26.00" x2="36.00" y2="25.00" stroke="black" stroke-width="1.5"/>
<line x1="38.00" y1="6.00" x2="47.00" y2="9.00" stroke="black" stroke-width="1.5"/>
<line x1="54.00" y1="8.00" x2="56.00" y2="5.00" stroke="black" stroke-width="1.5"/>
<line x1="56.00" y1="5.00" x2="56.00" y2="10.00" stroke="black" stroke-width="1.5"/>
<line x1="10.00" y1="9.00" x2="8.00" y2="12.00" stroke="black" stroke-width="1.5"/>
<line x1="18.00" y1="12.00" x2="18.00" y2="13.00" stroke="black" stroke-width="1.5"/>
<line x1="11.00" y1="13.00" x2="12.00" y2="13.00" stroke="black" stroke-width="1.5"/>
<line x1="8.00" y1="14.00" x2="8.00" y2="17.00" stroke="black" stroke-width="1.5"/>
<line x1="19.00" y1="21.00" x2="17.00" y2="17.00" stroke="black" stroke-width="1.5"/>
<line x1="17.00" y1="17.00" x2="11.00" y2="19.00" stroke="black" stroke-width="1.5"/>
<line x1="11.00" y1="19.00" x2="14.00" y2="21.00" stroke="black" stroke-width="1.5"/>
<line x1="11.00" y1="23.00" x2="17.00" y2="25.00" stroke="black" stroke-width="1.5"/>
<line x1="44.00" y1="26.00" x2="48.00" y2="27.00" stroke="black" stroke-width="1.5"/>
</svg>
