<?xml version="1.0"?>
<svg xmlns="http://www.w3.org/2000/svg" width="195" height="130" viewBox="0 0 195 130">
<line x1="87.00" y1="19.00" x2="95.00" y2="9.00" stroke="black" stroke-width="1.5"/>
<line x1="87.00" y1="19.00" x2="66.00" y2="20.00" stroke="black" stroke-width="1.5"/>
<line x1="87.00" y1="19.00" x2="106.00" y2="29.00" stroke="black" stroke-width="1.5"/>
<line x1="95.00" y1="9.00" x2="110.00" y2="5.00" stroke="black" stroke-width="1.5"/>
<line x1="66.00" y1="20.00" x2="68.00" y2="11.00" stroke="black" stroke-width="1.5"/>
<line x1="66.00" y1="20.00" x2="57.00" y2="27.00" stroke="black" stroke-width="1.5"/>
<line x1="106.00" y1="29.00" x2="116.00" y2="47.00" stroke="black" stroke-width="1.5"/>
<line x1="106.00" y1="29.00" x2="117.00" y2="23.00" stroke="black" stroke-width="1.5"/>
<line x1="68.00" y1="11.00" x2="78.00" y2="0.00" stroke="black" stroke-width="1.5"/>
<line x1="57.00" y1="27.00" x2="45.00" y2="24.00" stroke="black" stroke-width="1.5"/>
<line x1="57.00" y1="27.00" x2="51.00" y2="43.00" stroke="black" stroke-width="1.5"/>
<line x1="45.00" y1="24.00" x2="40.00" y2="28.00" stroke="black" stroke-width="1.5"/>
<line x1="51.00" y1="43.00" x2="53.00" y2="64.00" stroke="black" stroke-width="1.5"/>
<line x1="53.00" y1="64.00" x2="65.00" y2="83.00" stroke="black" stroke-width="1.5"/>
<line x1="65.00" y1="83.00" x2="80.00" y2="89.00" stroke="black" stroke-width="1.5"/>
<line x1="80.00" y1="89.00" x2="99.00" y2="84.00" stroke="black" stroke-width="1.5"/>
<line x1="99.00" y1="84.00" x2="115.00" y2="63.00" stroke="black" stroke-width="1.5"/>
<line x1="115.00" y1="63.00" x2="116.00" y2="47.00" stroke="black" stroke-width="1.5"/>
<line x1="117.00" y1="23.00" x2="136.00" y2="21.00" stroke="black" stroke-width="1.5"/>
<line x1="100.00" y1="62.00" x2="94.00" y2="72.00" stroke="black" stroke-width="1.5"/>
<line x1="94.00" y1="72.00" x2="82.00" y2="78.00" stroke="black" stroke-width="1.5"/>
<line x1="82.00" y1="78.00" x2="72.00" y2="75.00" stroke="black" stroke-width="1.5"/>
<line x1="72.00" y1="75.00" x2="65.00" y2="66.00" stroke="black" stroke-width="1.5"/>
<line x1="67.00" y1="37.00" x2="63.00" y2="40.00" stroke="black" stroke-width="1.5"/>
<line x1="67.00" y1="37.00" x2="68.00" y2="37.00" stroke="black" stroke-width="1.5"/>
<line x1="63.00" y1="40.00" x2="65.00" y2="44.00" stroke="black" stroke-width="1.5"/>
<line x1="65.00" y1="44.00" x2="71.00" y2="41.00" stroke="black" stroke-width="1.5"/>
<line x1="71.00" y1="41.00" x2="68.00" y2="37.00" stroke="black" stroke-width="1.5"/>
<line x1="96.00" y1="38.00" x2="93.00" y2="32.00" stroke="black" stroke-width="1.5"/>
<line x1="96.00" y1="38.00" x2="96.00" y2="39.00" stroke="black" stroke-width="1.5"/>
<line x1="93.00" y1="32.00" x2="86.00" y2="36.00" stroke="black" stroke-width="1.5"/>
<line x1="86.00" y1="36.00" x2="90.00" y2="43.00" stroke="black" stroke-width="1.5"/>
<line x1="90.00" y1="43.00" x2="96.00" y2="39.00" stroke="black" stroke-width="1.5"/>
</svg>
