<?xml version="1.0"?>
<svg xmlns="http://www.w3.org/2000/svg" width="127" height="204" viewBox="0 0 127 204">
<line x1="48.00" y1="87.00" x2="49.00" y2="70.00" stroke="black" stroke-width="1.5"/>
<line x1="48.00" y1="87.00" x2="14.00" y2="103.00" stroke="black" stroke-width="1.5"/>
<line x1="48.00" y1="87.00" x2="83.00" y2="99.00" stroke="black" stroke-width="1.5"/>
<line x1="48.00" y1="87.00" x2="49.00" y2="126.00" stroke="black" stroke-width="1.5"/>
<line x1="49.00" y1="70.00" x2="70.00" y2="64.00" stroke="black" stroke-width="1.5"/>
<line x1="49.00" y1="70.00" x2="41.00" y2="70.00" stroke="black" stroke-width="1.5"/>
<line x1="14.00" y1="103.00" x2="13.00" y2="103.00" stroke="black" stroke-width="1.5"/>
<line x1="14.00" y1="103.00" x2="14.00" y2="104.00" stroke="black" stroke-width="1.5"/>
<line x1="83.00" y1="99.00" x2="88.00" y2="98.00" stroke="black" stroke-width="1.5"/>
<line x1="83.00" y1="99.00" x2="87.00" y2="111.00" stroke="black" stroke-width="1.5"/>
<line x1="49.00" y1="126.00" x2="29.00" y2="152.00" stroke="black" stroke-width="1.5"/>
<line x1="49.00" y1="126.00" x2="69.00" y2="155.00" stroke="black" stroke-width="1.5"/>
<line x1="46.00" y1="29.00" x2="49.00" y2="20.00" stroke="black" stroke-width="1.5"/>
<line x1="46.00" y1="29.00" x2="39.00" y2="33.00" stroke="black" stroke-width="1.5"/>
<line x1="46.00" y1="29.00" x2="56.00" y2="29.00" stroke="black" stroke-width="1.5"/>
<line x1="39.00" y1="33.00" x2="32.00" y2="26.00" stroke="black" stroke-width="1.5"/>
<line x1="39.00" y1="33.00" x2="33.00" y2="40.00" stroke="black" stroke-width="1.5"/>
<line x1="56.00" y1="29.00" x2="66.00" y2="22.00" stroke="black" stroke-width="1.5"/>
<line x1="56.00" y1="29.00" x2="69.00" y2="37.00" stroke="black" stroke-width="1.5"/>
<line x1="69.00" y1="37.00" x2="83.00" y2="30.00" stroke="black" stroke-width="1.5"/>
<line x1="69.00" y1="37.00" x2="73.00" y2="49.00" stroke="black" stroke-width="1.5"/>
<line x1="33.00" y1="40.00" x2="27.00" y2="35.00" stroke="black" stroke-width="1.5"/>
<line x1="33.00" y1="40.00" x2="29.00" y2="51.00" stroke="black" stroke-width="1.5"/>
<line x1="73.00" y1="49.00" x2="70.00" y2="64.00" stroke="black" stroke-width="1.5"/>
<line x1="29.00" y1="51.00" x2="32.00" y2="62.00" stroke="black" stroke-width="1.5"/>
<line x1="32.00" y1="62.00" x2="41.00" y2="70.00" stroke="black" stroke-width="1.5"/>
<line x1="88.00" y1="98.00" x2="95.00" y2="94.00" stroke="black" stroke-width="1.5"/>
<line x1="88.00" y1="98.00" x2="94.00" y2="100.00" stroke="black" stroke-width="1.5"/>
<line x1="13.00" y1="103.00" x2="6.00" y2="99.00" stroke="black" stroke-width="1.5"/>
<line x1="13.00" y1="103.00" x2="13.00" y2="104.00" stroke="black" stroke-width="1.5"/>
<line x1="13.00" y1="104.00" x2="3.00" y2="107.00" stroke="black" stroke-width="1.5"/>
<line x1="13.00" y1="104.00" x2="14.00" y2="104.00" stroke="black" stroke-width="1.5"/>
<line x1="14.00" y1="104.00" x2="13.00" y2="110.00" stroke="black" stroke-width="1.5"/>
<line x1="29.00" y1="152.00" x2="19.00" y2="151.00" stroke="black" stroke-width="1.5"/>
<line x1="29.00" y1="152.00" x2="28.00" y2="161.00" stroke="black" stroke-width="1.5"/>
<line x1="69.00" y1="155.00" x2="82.00" y2="155.00" stroke="black" stroke-width="1.5"/>
<line x1="69.00" y1="155.00" x2="76.00" y2="165.00" stroke="black" stroke-width="1.5"/>
<line x1="19.00" y1="151.00" x2="14.00" y2="158.00" stroke="black" stroke-width="1.5"/>
<line x1="14.00" y1="158.00" x2="28.00" y2="161.00" stroke="black" stroke-width="1.5"/>
<line x1="82.00" y1="155.00" x2="86.00" y2="165.00" stroke="black" stroke-width="1.5"/>
<line x1="86.00" y1="165.00" x2="76.00" y2="165.00" stroke="black" stroke-width="1.5"/>
<line x1="39.00" y1="43.00" x2="40.00" y2="46.00" stroke="black" stroke-width="1.5"/>
<line x1="64.00" y1="56.00" x2="48.00" y2="64.00" stroke="black" stroke-width="1.5"/>
<line x1="48.00" y1="64.00" x2="38.00" y2="59.00" stroke="black" stroke-width="1.5"/>
<line x1="59.00" y1="40.00" x2="54.00" y2="42.00" stroke="black" stroke-width="1.5"/>
<line x1="59.00" y1="40.00" x2="59.00" y2="41.00" stroke="black" stroke-width="1.5"/>
<line x1="54.00" y1="42.00" x2="58.00" y2="44.00" stroke="black" stroke-width="1.5"/>
<line x1="58.00" y1="44.00" x2="59.00" y2="41.00" stroke="black" stroke-width="1.5"/>
</svg>
