<?xml version="1.0"?>
<svg xmlns="http://www.w3.org/2000/svg" width="40" height="65" viewBox="0 0 40 65">
<line x1="17.00" y1="28.00" x2="17.00" y2="23.00" stroke="black" stroke-width="1.5"/>
<line x1="17.00" y1="28.00" x2="4.00" y2="33.00" stroke="black" stroke-width="1.5"/>
<line x1="17.00" y1="28.00" x2="27.00" y2="31.00" stroke="black" stroke-width="1.5"/>
<line x1="17.00" y1="28.00" x2="17.00" y2="39.00" stroke="black" stroke-width="1.5"/>
<line x1="17.00" y1="23.00" x2="14.00" y2="22.00" stroke="black" stroke-width="1.5"/>
<line x1="17.00" y1="23.00" x2="23.00" y2="17.00" stroke="black" stroke-width="1.5"/>
<line x1="27.00" y1="31.00" x2="28.00" y2="30.00" stroke="black" stroke-width="1.5"/>
<line x1="27.00" y1="31.00" x2="27.00" y2="34.00" stroke="black" stroke-width="1.5"/>
<line x1="17.00" y1="39.00" x2="9.00" y2="50.00" stroke="black" stroke-width="1.5"/>
<line x1="17.00" y1="39.00" x2="22.00" y2="47.00" stroke="black" stroke-width="1.5"/>
<line x1="13.00" y1="11.00" x2="12.00" y2="10.00" stroke="black" stroke-width="1.5"/>
<line x1="13.00" y1="11.00" x2="16.00" y2="9.00" stroke="black" stroke-width="1.5"/>
<line x1="13.00" y1="11.00" x2="12.00" y2="14.00" stroke="black" stroke-width="1.5"/>
<line x1="12.00" y1="14.00" x2="11.00" y2="13.00" stroke="black" stroke-width="1.5"/>
<line x1="12.00" y1="14.00" x2="12.00" y2="15.00" stroke="black" stroke-width="1.5"/>
<line x1="12.00" y1="15.00" x2="13.00" y2="15.00" stroke="black" stroke-width="1.5"/>
<line x1="12.00" y1="15.00" x2="13.00" y2="21.00" stroke="black" stroke-width="1.5"/>
<line x1="13.00" y1="21.00" x2="15.00" y2="21.00" stroke="black" stroke-width="1.5"/>
<line x1="13.00" y1="21.00" x2="14.00" y2="22.00" stroke="black" stroke-width="1.5"/>
<line x1="15.00" y1="21.00" x2="20.00" y2="19.00" stroke="black" stroke-width="1.5"/>
<line x1="15.00" y1="21.00" x2="14.00" y2="22.00" stroke="black" stroke-width="1.5"/>
<line x1="9.00" y1="50.00" x2="8.00" y2="46.00" stroke="black" stroke-width="1.5"/>
<line x1="22.00" y1="47.00" x2="27.00" y2="50.00" stroke="black" stroke-width="1.5"/>
<line x1="20.00" y1="9.00" x2="20.00" y2="12.00" stroke="black" stroke-width="1.5"/>
<line x1="25.00" y1="11.00" x2="23.00" y2="15.00" stroke="black" stroke-width="1.5"/>
<line x1="18.00" y1="14.00" x2="20.00" y2="15.00" stroke="black" stroke-width="1.5"/>
</svg>
