<?xml version="1.0"?>
<svg xmlns="http://www.w3.org/2000/svg" width="200" height="114" viewBox="0 0 200 114">
<line x1="122.00" y1="13.00" x2="103.00" y2="12.00" stroke="black" stroke-width="1.5"/>
<line x1="122.00" y1="13.00" x2="124.00" y2="12.00" stroke="black" stroke-width="1.5"/>
<line x1="122.00" y1="13.00" x2="99.00" y2="35.00" stroke="black" stroke-width="1.5"/>
<line x1="103.00" y1="12.00" x2="87.00" y2="18.00" stroke="black" stroke-width="1.5"/>
<line x1="87.00" y1="18.00" x2="72.00" y2="32.00" stroke="black" stroke-width="1.5"/>
<line x1="72.00" y1="32.00" x2="62.00" y2="52.00" stroke="black" stroke-width="1.5"/>
<line x1="62.00" y1="52.00" x2="45.00" y2="56.00" stroke="black" stroke-width="1.5"/>
<line x1="62.00" y1="52.00" x2="60.00" y2="63.00" stroke="black" stroke-width="1.5"/>
<line x1="99.00" y1="35.00" x2="95.00" y2="51.00" stroke="black" stroke-width="1.5"/>
<line x1="95.00" y1="51.00" x2="107.00" y2="49.00" stroke="black" stroke-width="1.5"/>
<line x1="95.00" y1="51.00" x2="93.00" y2="63.00" stroke="black" stroke-width="1.5"/>
<line x1="107.00" y1="49.00" x2="125.00" y2="54.00" stroke="black" stroke-width="1.5"/>
<line x1="125.00" y1="54.00" x2="128.00" y2="65.00" stroke="black" stroke-width="1.5"/>
<line x1="128.00" y1="65.00" x2="124.00" y2="72.00" stroke="black" stroke-width="1.5"/>
<line x1="124.00" y1="72.00" x2="105.00" y2="82.00" stroke="black" stroke-width="1.5"/>
<line x1="105.00" y1="82.00" x2="61.00" y2="86.00" stroke="black" stroke-width="1.5"/>
<line x1="61.00" y1="86.00" x2="43.00" y2="82.00" stroke="black" stroke-width="1.5"/>
<line x1="43.00" y1="82.00" x2="35.00" y2="73.00" stroke="black" stroke-width="1.5"/>
<line x1="35.00" y1="73.00" x2="35.00" y2="64.00" stroke="black" stroke-width="1.5"/>
<line x1="35.00" y1="64.00" x2="45.00" y2="56.00" stroke="black" stroke-width="1.5"/>
<line x1="93.00" y1="63.00" x2="96.00" y2="68.00" stroke="black" stroke-width="1.5"/>
</svg>
