<?xml version="1.0"?>
<svg xmlns="http://www.w3.org/2000/svg" width="206" height="125" viewBox="0 0 206 125">
<line x1="94.00" y1="53.00" x2="92.00" y2="27.00" stroke="black" stroke-width="1.5"/>
<line x1="94.00" y1="53.00" x2="61.00" y2="53.00" stroke="black" stroke-width="1.5"/>
<line x1="94.00" y1="53.00" x2="134.00" y2="51.00" stroke="black" stroke-width="1.5"/>
<line x1="94.00" y1="53.00" x2="98.00" y2="86.00" stroke="black" stroke-width="1.5"/>
<line x1="92.00" y1="27.00" x2="132.00" y2="26.00" stroke="black" stroke-width="1.5"/>
<line x1="92.00" y1="27.00" x2="59.00" y2="30.00" stroke="black" stroke-width="1.5"/>
<line x1="61.00" y1="53.00" x2="60.00" y2="52.00" stroke="black" stroke-width="1.5"/>
<line x1="61.00" y1="53.00" x2="60.00" y2="78.00" stroke="black" stroke-width="1.5"/>
<line x1="134.00" y1="51.00" x2="134.00" y2="48.00" stroke="black" stroke-width="1.5"/>
<line x1="134.00" y1="51.00" x2="135.00" y2="53.00" stroke="black" stroke-width="1.5"/>
<line x1="98.00" y1="86.00" x2="129.00" y2="84.00" stroke="black" stroke-width="1.5"/>
<line x1="98.00" y1="86.00" x2="66.00" y2="90.00" stroke="black" stroke-width="1.5"/>
<line x1="132.00" y1="26.00" x2="127.00" y2="19.00" stroke="black" stroke-width="1.5"/>
<line x1="132.00" y1="26.00" x2="134.00" y2="48.00" stroke="black" stroke-width="1.5"/>
<line x1="127.00" y1="19.00" x2="115.00" y2="18.00" stroke="black" stroke-width="1.5"/>
<line x1="115.00" y1="18.00" x2="63.00" y2="24.00" stroke="black" stroke-width="1.5"/>
<line x1="63.00" y1="24.00" x2="59.00" y2="30.00" stroke="black" stroke-width="1.5"/>
<line x1="59.00" y1="30.00" x2="60.00" y2="52.00" stroke="black" stroke-width="1.5"/>
<line x1="134.00" y1="48.00" x2="167.00" y2="42.00" stroke="black" stroke-width="1.5"/>
<line x1="60.00" y1="52.00" x2="33.00" y2="55.00" stroke="black" stroke-width="1.5"/>
<line x1="167.00" y1="42.00" x2="172.00" y2="49.00" stroke="black" stroke-width="1.5"/>
<line x1="172.00" y1="49.00" x2="164.00" y2="51.00" stroke="black" stroke-width="1.5"/>
<line x1="172.00" y1="49.00" x2="175.00" y2="58.00" stroke="black" stroke-width="1.5"/>
<line x1="164.00" y1="51.00" x2="135.00" y2="53.00" stroke="black" stroke-width="1.5"/>
<line x1="164.00" y1="51.00" x2="168.00" y2="57.00" stroke="black" stroke-width="1.5"/>
<line x1="175.00" y1="58.00" x2="168.00" y2="57.00" stroke="black" stroke-width="1.5"/>
<line x1="175.00" y1="58.00" x2="177.00" y2="76.00" stroke="black" stroke-width="1.5"/>
<line x1="135.00" y1="53.00" x2="135.00" y2="70.00" stroke="black" stroke-width="1.5"/>
<line x1="33.00" y1="55.00" x2="20.00" y2="57.00" stroke="black" stroke-width="1.5"/>
<line x1="33.00" y1="55.00" x2="30.00" y2="64.00" stroke="black" stroke-width="1.5"/>
<line x1="60.00" y1="78.00" x2="45.00" y2="79.00" stroke="black" stroke-width="1.5"/>
<line x1="60.00" y1="78.00" x2="66.00" y2="90.00" stroke="black" stroke-width="1.5"/>
<line x1="135.00" y1="70.00" x2="128.00" y2="76.00" stroke="black" stroke-width="1.5"/>
<line x1="135.00" y1="70.00" x2="149.00" y2="70.00" stroke="black" stroke-width="1.5"/>
<line x1="20.00" y1="57.00" x2="20.00" y2="67.00" stroke="black" stroke-width="1.5"/>
<line x1="20.00" y1="67.00" x2="30.00" y2="64.00" stroke="black" stroke-width="1.5"/>
<line x1="20.00" y1="67.00" x2="21.00" y2="88.00" stroke="black" stroke-width="1.5"/>
<line x1="177.00" y1="76.00" x2="159.00" y2="80.00" stroke="black" stroke-width="1.5"/>
<line x1="159.00" y1="80.00" x2="149.00" y2="70.00" stroke="black" stroke-width="1.5"/>
<line x1="159.00" y1="80.00" x2="159.00" y2="88.00" stroke="black" stroke-width="1.5"/>
<line x1="21.00" y1="88.00" x2="34.00" y2="89.00" stroke="black" stroke-width="1.5"/>
<line x1="34.00" y1="89.00" x2="45.00" y2="79.00" stroke="black" stroke-width="1.5"/>
<line x1="34.00" y1="89.00" x2="35.00" y2="97.00" stroke="black" stroke-width="1.5"/>
<line x1="128.00" y1="76.00" x2="129.00" y2="84.00" stroke="black" stroke-width="1.5"/>
<line x1="129.00" y1="84.00" x2="141.00" y2="95.00" stroke="black" stroke-width="1.5"/>
<line x1="66.00" y1="90.00" x2="63.00" y2="102.00" stroke="black" stroke-width="1.5"/>
<line x1="159.00" y1="88.00" x2="149.00" y2="96.00" stroke="black" stroke-width="1.5"/>
<line x1="149.00" y1="96.00" x2="141.00" y2="95.00" stroke="black" stroke-width="1.5"/>
<line x1="35.00" y1="97.00" x2="47.00" y2="104.00" stroke="black" stroke-width="1.5"/>
<line x1="47.00" y1="104.00" x2="63.00" y2="102.00" stroke="black" stroke-width="1.5"/>
<line x1="127.00" y1="63.00" x2="124.00" y2="64.00" stroke="black" stroke-width="1.5"/>
<line x1="68.00" y1="70.00" x2="70.00" y2="70.00" stroke="black" stroke-width="1.5"/>
<line x1="149.00" y1="79.00" x2="146.00" y2="75.00" stroke="black" stroke-width="1.5"/>
<line x1="149.00" y1="79.00" x2="149.00" y2="80.00" stroke="black" stroke-width="1.5"/>
<line x1="146.00" y1="75.00" x2="136.00" y2="79.00" stroke="black" stroke-width="1.5"/>
<line x1="136.00" y1="79.00" x2="143.00" y2="84.00" stroke="black" stroke-width="1.5"/>
<line x1="143.00" y1="84.00" x2="149.00" y2="80.00" stroke="black" stroke-width="1.5"/>
<line x1="46.00" y1="96.00" x2="43.00" y2="90.00" stroke="black" stroke-width="1.5"/>
<line x1="46.00" y1="96.00" x2="47.00" y2="97.00" stroke="black" stroke-width="1.5"/>
<line x1="43.00" y1="90.00" x2="54.00" y2="82.00" stroke="black" stroke-width="1.5"/>
<line x1="54.00" y1="82.00" x2="58.00" y2="91.00" stroke="black" stroke-width="1.5"/>
<line x1="58.00" y1="91.00" x2="53.00" y2="97.00" stroke="black" stroke-width="1.5"/>
<line x1="53.00" y1="97.00" x2="47.00" y2="97.00" stroke="black" stroke-width="1.5"/>
</svg>
