<?xml version="1.0"?>
<svg xmlns="http://www.w3.org/2000/svg" width="95" height="55" viewBox="0 0 95 55">
<line x1="39.00" y1="14.00" x2="38.00" y2="5.00" stroke="black" stroke-width="1.5"/>
<line x1="39.00" y1="14.00" x2="46.00" y2="14.00" stroke="black" stroke-width="1.5"/>
<line x1="39.00" y1="14.00" x2="32.00" y2="15.00" stroke="black" stroke-width="1.5"/>
<line x1="46.00" y1="14.00" x2="56.00" y2="7.00" stroke="black" stroke-width="1.5"/>
<line x1="46.00" y1="14.00" x2="54.00" y2="17.00" stroke="black" stroke-width="1.5"/>
<line x1="32.00" y1="15.00" x2="25.00" y2="7.00" stroke="black" stroke-width="1.5"/>
<line x1="32.00" y1="15.00" x2="27.00" y2="18.00" stroke="black" stroke-width="1.5"/>
<line x1="54.00" y1="17.00" x2="65.00" y2="12.00" stroke="black" stroke-width="1.5"/>
<line x1="54.00" y1="17.00" x2="58.00" y2="20.00" stroke="black" stroke-width="1.5"/>
<line x1="27.00" y1="18.00" x2="17.00" y2="15.00" stroke="black" stroke-width="1.5"/>
<line x1="27.00" y1="18.00" x2="25.00" y2="22.00" stroke="black" stroke-width="1.5"/>
<line x1="25.00" y1="22.00" x2="15.00" y2="21.00" stroke="black" stroke-width="1.5"/>
<line x1="25.00" y1="22.00" x2="25.00" y2="27.00" stroke="black" stroke-width="1.5"/>
<line x1="58.00" y1="20.00" x2="72.00" y2="20.00" stroke="black" stroke-width="1.5"/>
<line x1="58.00" y1="20.00" x2="59.00" y2="25.00" stroke="black" stroke-width="1.5"/>
<line x1="59.00" y1="25.00" x2="72.00" y2="25.00" stroke="black" stroke-width="1.5"/>
<line x1="59.00" y1="25.00" x2="58.00" y2="31.00" stroke="black" stroke-width="1.5"/>
<line x1="25.00" y1="27.00" x2="14.00" y2="28.00" stroke="black" stroke-width="1.5"/>
<line x1="25.00" y1="27.00" x2="26.00" y2="31.00" stroke="black" stroke-width="1.5"/>
<line x1="58.00" y1="31.00" x2="57.00" y2="34.00" stroke="black" stroke-width="1.5"/>
<line x1="58.00" y1="31.00" x2="67.00" y2="34.00" stroke="black" stroke-width="1.5"/>
<line x1="26.00" y1="31.00" x2="19.00" y2="34.00" stroke="black" stroke-width="1.5"/>
<line x1="26.00" y1="31.00" x2="29.00" y2="36.00" stroke="black" stroke-width="1.5"/>
<line x1="29.00" y1="36.00" x2="20.00" y2="39.00" stroke="black" stroke-width="1.5"/>
<line x1="29.00" y1="36.00" x2="34.00" y2="38.00" stroke="black" stroke-width="1.5"/>
<line x1="57.00" y1="34.00" x2="53.00" y2="37.00" stroke="black" stroke-width="1.5"/>
<line x1="57.00" y1="34.00" x2="63.00" y2="36.00" stroke="black" stroke-width="1.5"/>
<line x1="53.00" y1="37.00" x2="49.00" y2="38.00" stroke="black" stroke-width="1.5"/>
<line x1="53.00" y1="37.00" x2="60.00" y2="42.00" stroke="black" stroke-width="1.5"/>
<line x1="34.00" y1="38.00" x2="42.00" y2="39.00" stroke="black" stroke-width="1.5"/>
<line x1="34.00" y1="38.00" x2="31.00" y2="45.00" stroke="black" stroke-width="1.5"/>
<line x1="49.00" y1="38.00" x2="42.00" y2="39.00" stroke="black" stroke-width="1.5"/>
<line x1="49.00" y1="38.00" x2="52.00" y2="45.00" stroke="black" stroke-width="1.5"/>
<line x1="42.00" y1="39.00" x2="45.00" y2="45.00" stroke="black" stroke-width="1.5"/>
</svg>
